/* XPM */
static char*filenew[]={
"16 13 5 1",
"# c #000000",
"c c #717171",
". c None",
"b c #353535",
"a c #ffffff",
"................",
"...######.......",
"...#aaaa#b......",
"...#aaaa#cb.....",
"...#aaaa#ccb....",
"...#aaaa#####...",
"...#aaaaaaaa#...",
"...#aaaaaaaa#...",
"...#aaaaaaaa#...",
"...#aaaaaaaa#...",
"...#aaaaaaaa#...",
"...##########...",
"................"};
